<svg xmlns="http://www.w3.org/2000/svg" viewBox="0 0 378 100"><defs><style>.cls-1,.cls-2{fill:#fff;}.cls-1{fill-rule:evenodd;}.cls-3{fill:#f8b92a;}.cls-4{fill:#ffcd69;}.cls-5{fill:#e2a120;}</style></defs><title>logo (2)</title><g id="Layer_2" data-name="Layer 2"><g id="Logo_Yellow_Alt" data-name="Logo Yellow Alt"><g id="logo"><g id="Wordmark"><g id="Layer_2-2" data-name="Layer 2"><g id="Layer_1-2" data-name="Layer 1-2"><path class="cls-1" d="M112.35,2.3a4.27,4.27,0,0,0-.74-1.18,3.42,3.42,0,0,0-1.09-.8A3.51,3.51,0,0,0,109.18,0H91.34a.54.54,0,0,0-.43.17.59.59,0,0,0-.15.46V22.4c0,.42.18.61.56.61H95.4c.38,0,.56-.19.56-.61V5.45h3.32v17a.58.58,0,0,0,.55.61h3.75a.48.48,0,0,0,.38-.17.71.71,0,0,0,.15-.44V5.45h3.31v17a.74.74,0,0,0,.14.44A.5.5,0,0,0,108,23h4.11a.58.58,0,0,0,.56-.61h0V3.76A3.82,3.82,0,0,0,112.35,2.3Z"/><path class="cls-1" d="M131,17.6a.48.48,0,0,0-.4-.17v0H122a.57.57,0,0,1-.42-.16.58.58,0,0,1-.18-.43V.65c0-.41-.2-.63-.6-.63h-4.3c-.4,0-.6.22-.6.63V22.4q0,.63.6.63h14.08a.47.47,0,0,0,.4-.18.66.66,0,0,0,.17-.45V18.06A.71.71,0,0,0,131,17.6Z"/><path class="cls-1" d="M152.62.2A.56.56,0,0,0,152.2,0h-4.39a.55.55,0,0,0-.41.18.57.57,0,0,0-.18.45V8a.59.59,0,0,1-.54.63h-6.19a.52.52,0,0,1-.58-.49V.65c0-.41-.2-.63-.6-.63h-4.37c-.4,0-.6.22-.6.63V22.46c0,.41.2.63.6.63h4.37c.4,0,.6-.22.6-.63V14.71a.75.75,0,0,1,.16-.29.61.61,0,0,1,.42-.16h6.15a.53.53,0,0,1,.42.16.65.65,0,0,1,.16.43v7.61a.68.68,0,0,0,.18.46.55.55,0,0,0,.42.17h4.38a.55.55,0,0,0,.42-.17.63.63,0,0,0,.18-.46V.65A.67.67,0,0,0,152.62.2Z"/></g></g><path class="cls-2" d="M99,73.26H90.76V33.7h22.67v6.87H99v10.2h13.42v6.85H99Z"/><path class="cls-2" d="M134.22,73.8q-7.31,0-11.42-4t-4.12-11.42q0-7.6,3.81-11.76T133,42.44q6.42,0,10,3.65t3.57,10.1v4H127.05a8,8,0,0,0,2.08,5.5,7.36,7.36,0,0,0,5.47,2,22.69,22.69,0,0,0,5.17-.57,25.75,25.75,0,0,0,5.08-1.81v6.39a19.74,19.74,0,0,1-4.62,1.61A29.46,29.46,0,0,1,134.22,73.8Zm-1.17-25.49A5.23,5.23,0,0,0,128.94,50a7.66,7.66,0,0,0-1.7,4.72h11.58a6.87,6.87,0,0,0-1.6-4.72A5.42,5.42,0,0,0,133.05,48.31Z"/><path class="cls-2" d="M161.52,73.26h-8.25V31.15h8.25Z"/><path class="cls-2" d="M178.44,73.26h-8.26V31.15h8.26Z"/><path class="cls-2" d="M214.59,58.08q0,7.39-3.89,11.56T199.85,73.8a15.2,15.2,0,0,1-7.69-1.9A12.81,12.81,0,0,1,187,66.42a18.46,18.46,0,0,1-1.78-8.34q0-7.41,3.87-11.53T200,42.44a15.29,15.29,0,0,1,7.68,1.89,12.71,12.71,0,0,1,5.12,5.44A18.3,18.3,0,0,1,214.59,58.08Zm-20.91,0q0,4.5,1.47,6.79a5.25,5.25,0,0,0,4.8,2.3,5.18,5.18,0,0,0,4.75-2.28q1.45-2.3,1.45-6.81t-1.46-6.74a6.22,6.22,0,0,0-9.55,0C194.16,52.82,193.68,55.07,193.68,58.08Z"/><path class="cls-2" d="M246.29,73.26,244,62.68l-3.14-13.37h-.19l-5.52,24h-8.88L217.63,43h8.22l3.49,13.39q.84,3.6,1.71,9.93h.16a55.25,55.25,0,0,1,.95-6.52l.43-2.3L236.33,43h9.09L249,57.51c.08.4.19,1,.34,1.76s.31,1.6.45,2.48.27,1.73.39,2.57a17.66,17.66,0,0,1,.2,2h.17c.16-1.29.45-3.08.86-5.34s.72-3.79.9-4.59L255.89,43H264l-8.71,30.25Z"/><path class="cls-2" d="M290,64.28a8.33,8.33,0,0,1-3.23,7.09q-3.24,2.43-9.67,2.43a30.18,30.18,0,0,1-5.63-.44A21.28,21.28,0,0,1,267.07,72V65.23A29,29,0,0,0,272.25,67a20.88,20.88,0,0,0,5.08.73q4.49,0,4.49-2.6a2.14,2.14,0,0,0-.6-1.58,8.27,8.27,0,0,0-2.05-1.38q-1.47-.78-3.9-1.8a24.64,24.64,0,0,1-5.13-2.71,7.68,7.68,0,0,1-2.38-2.85,9.41,9.41,0,0,1-.74-4,7.19,7.19,0,0,1,3.12-6.24q3.14-2.2,8.86-2.2a25.13,25.13,0,0,1,10.64,2.38l-2.49,6a44.31,44.31,0,0,0-4.25-1.59,13.2,13.2,0,0,0-4-.63c-2.44,0-3.65.66-3.65,2a2.32,2.32,0,0,0,1.17,1.92,32.13,32.13,0,0,0,5.16,2.41,24.11,24.11,0,0,1,5.19,2.68,7.94,7.94,0,0,1,2.44,2.87A8.85,8.85,0,0,1,290,64.28Z"/><path class="cls-2" d="M324.33,73.26h-8.25V55.59q0-6.56-4.87-6.55a5.55,5.55,0,0,0-5,2.36q-1.54,2.35-1.54,7.63V73.26h-8.25V31.15h8.25v8.58c0,.67-.06,2.24-.19,4.71l-.19,2.44h.43q2.76-4.44,8.77-4.44c3.56,0,6.25,1,8.09,2.87s2.76,4.65,2.76,8.22Z"/><path class="cls-2" d="M332.48,35.19q0-4,4.49-4t4.5,4a3.94,3.94,0,0,1-1.13,3A4.73,4.73,0,0,1,337,39.24Q332.49,39.24,332.48,35.19Zm8.61,38.07h-8.26V43h8.26Z"/><path class="cls-2" d="M366.36,73.8A10,10,0,0,1,358,69.93h-.43c.29,2.53.43,4,.43,4.39V86.58h-8.25V43h6.71l1.16,3.92H358a9.56,9.56,0,0,1,8.58-4.49A9.82,9.82,0,0,1,375,46.58q3,4.14,3,11.5a22.67,22.67,0,0,1-1.42,8.42,11.87,11.87,0,0,1-4.05,5.44A10.38,10.38,0,0,1,366.36,73.8ZM363.93,49a5.23,5.23,0,0,0-4.47,1.88c-.94,1.26-1.42,3.33-1.46,6.21V58q0,4.86,1.45,7A5.15,5.15,0,0,0,364,67.12q5.54,0,5.54-9.15c0-3-.45-5.21-1.36-6.7A4.68,4.68,0,0,0,363.93,49Z"/><path class="cls-2" d="M97,88.63a2.76,2.76,0,0,1-1,2.31,4.69,4.69,0,0,1-2.93.8H91.91v3.89H90.76V85.74h2.56Q97,85.74,97,88.63Zm-5.12,2.13h1a3.81,3.81,0,0,0,2.21-.5,1.8,1.8,0,0,0,.69-1.58,1.71,1.71,0,0,0-.65-1.46,3.33,3.33,0,0,0-2-.48H91.91Z"/><path class="cls-2" d="M105.33,91.92a4.13,4.13,0,0,1-.91,2.83,3.22,3.22,0,0,1-2.53,1,3.33,3.33,0,0,1-1.76-.47A2.94,2.94,0,0,1,98.94,94a4.64,4.64,0,0,1-.42-2,4.08,4.08,0,0,1,.9-2.82,3.21,3.21,0,0,1,2.52-1,3.13,3.13,0,0,1,2.47,1A4.07,4.07,0,0,1,105.33,91.92Zm-5.65,0a3.53,3.53,0,0,0,.57,2.17,2.25,2.25,0,0,0,3.34,0,3.53,3.53,0,0,0,.58-2.17,3.46,3.46,0,0,0-.58-2.15,2.3,2.3,0,0,0-3.35,0A3.51,3.51,0,0,0,99.68,91.92Z"/><path class="cls-2" d="M113.35,95.63,112,91.28c-.08-.26-.24-.87-.48-1.81h-.05c-.18.79-.34,1.4-.47,1.83l-1.41,4.33h-1.29l-2-7.41h1.18c.48,1.86.84,3.28,1.09,4.25a16.63,16.63,0,0,1,.43,2H109c0-.25.13-.59.24-1s.2-.74.28-1l1.36-4.25h1.22l1.33,4.25a14.73,14.73,0,0,1,.51,2H114a5.24,5.24,0,0,1,.14-.75q.12-.51,1.41-5.46h1.17l-2,7.41Z"/><path class="cls-2" d="M121.21,95.77a3.41,3.41,0,0,1-2.6-1,3.91,3.91,0,0,1-1-2.78,4.28,4.28,0,0,1,.89-2.85,2.92,2.92,0,0,1,2.37-1.06,2.79,2.79,0,0,1,2.2.92,3.52,3.52,0,0,1,.81,2.42v.71h-5.1a2.91,2.91,0,0,0,.66,2,2.27,2.27,0,0,0,1.76.68,6,6,0,0,0,2.37-.5v1a6.73,6.73,0,0,1-1.13.37A6.63,6.63,0,0,1,121.21,95.77ZM120.9,89a1.83,1.83,0,0,0-1.42.59,2.72,2.72,0,0,0-.63,1.61h3.88a2.51,2.51,0,0,0-.47-1.63A1.68,1.68,0,0,0,120.9,89Z"/><path class="cls-2" d="M129.23,88.08a4,4,0,0,1,.89.09l-.16,1a3.57,3.57,0,0,0-.81-.1,2,2,0,0,0-1.54.73,2.68,2.68,0,0,0-.64,1.82v4h-1.12V88.22h.93l.12,1.37H127a3.26,3.26,0,0,1,1-1.11A2.2,2.2,0,0,1,129.23,88.08Z"/><path class="cls-2" d="M134.64,95.77a3.41,3.41,0,0,1-2.6-1,3.91,3.91,0,0,1-.95-2.78,4.28,4.28,0,0,1,.89-2.85,2.92,2.92,0,0,1,2.37-1.06,2.79,2.79,0,0,1,2.2.92,3.52,3.52,0,0,1,.81,2.42v.71h-5.1a2.91,2.91,0,0,0,.66,2,2.27,2.27,0,0,0,1.76.68,6,6,0,0,0,2.37-.5v1a6.73,6.73,0,0,1-1.13.37A6.63,6.63,0,0,1,134.64,95.77ZM134.33,89a1.83,1.83,0,0,0-1.42.59,2.72,2.72,0,0,0-.63,1.61h3.88a2.51,2.51,0,0,0-.47-1.63A1.68,1.68,0,0,0,134.33,89Z"/><path class="cls-2" d="M144.33,94.64h-.06a2.66,2.66,0,0,1-2.33,1.13,2.77,2.77,0,0,1-2.27-1,5.41,5.41,0,0,1,0-5.68,3,3,0,0,1,4.57.08h.09l-.05-.53,0-.53v-3h1.12V95.63h-.91Zm-2.25.19a2,2,0,0,0,1.67-.63,3.18,3.18,0,0,0,.52-2V92a3.72,3.72,0,0,0-.53-2.25,2,2,0,0,0-1.67-.68,1.74,1.74,0,0,0-1.52.77A3.83,3.83,0,0,0,140,92a3.67,3.67,0,0,0,.52,2.15A1.78,1.78,0,0,0,142.08,94.83Z"/><path class="cls-2" d="M154.82,88.1a2.75,2.75,0,0,1,2.27,1,5.32,5.32,0,0,1,0,5.66,2.74,2.74,0,0,1-2.26,1,3.18,3.18,0,0,1-1.32-.27,2.5,2.5,0,0,1-1-.82h-.08l-.24.95h-.8V85.11h1.12v2.55c0,.58,0,1.09-.05,1.55h.05A2.68,2.68,0,0,1,154.82,88.1Zm-.16.94a2,2,0,0,0-1.66.66,3.7,3.7,0,0,0-.51,2.22,3.79,3.79,0,0,0,.52,2.24,2,2,0,0,0,1.67.67,1.74,1.74,0,0,0,1.55-.76,3.84,3.84,0,0,0,.5-2.16,3.71,3.71,0,0,0-.5-2.16A1.78,1.78,0,0,0,154.66,89Z"/><path class="cls-2" d="M158.68,88.22h1.21l1.62,4.23a14.32,14.32,0,0,1,.66,2.09h.06c.06-.23.18-.63.37-1.18s.8-2.27,1.83-5.14h1.21l-3.19,8.44a4.16,4.16,0,0,1-1.1,1.78,2.37,2.37,0,0,1-1.56.52,4.88,4.88,0,0,1-1-.11V98a4.17,4.17,0,0,0,.83.08,1.71,1.71,0,0,0,1.65-1.3l.41-1.06Z"/><path class="cls-2" d="M184.38,89.43h-5.74a.27.27,0,0,0-.27.27v2.81a.27.27,0,0,0,.27.27h2.23v3.48a6.8,6.8,0,0,1-1.89.17c-1.64,0-3.93-.59-3.93-5.63s2.39-5.71,4.63-5.71a9.1,9.1,0,0,1,3.3.51.27.27,0,0,0,.32-.26l.64-2.71a.24.24,0,0,0-.1-.21c-.21-.16-1.53-.89-4.86-.89-3.83,0-7.76,1.63-7.76,9.46s4.5,9,8.29,9a9.37,9.37,0,0,0,5.05-1.34.24.24,0,0,0,.08-.21V89.7A.27.27,0,0,0,184.38,89.43Z"/><path class="cls-2" d="M214,82.46a.27.27,0,0,0-.27-.27h-3.23a.27.27,0,0,0-.27.27v6.25h-5V82.46a.27.27,0,0,0-.27-.27h-3.23a.27.27,0,0,0-.27.27V99.38a.27.27,0,0,0,.27.27h3.23a.27.27,0,0,0,.27-.27V92.14h5v7.24a.27.27,0,0,0,.26.27h3.24a.27.27,0,0,0,.27-.27Z"/><path class="cls-2" d="M190.48,84.68a2.09,2.09,0,1,0-2.09,2.11A2.1,2.1,0,0,0,190.48,84.68Z"/><path class="cls-2" d="M190.24,95.81V88a.27.27,0,0,0-.26-.27h-3.23a.32.32,0,0,0-.28.3V99.22c0,.33.21.43.47.43h2.91c.32,0,.39-.16.39-.44Z"/><path class="cls-2" d="M226.25,87.76H223a.27.27,0,0,0-.27.27v8.29a3.59,3.59,0,0,1-2,.6c-1.16,0-1.46-.53-1.46-1.66V88a.27.27,0,0,0-.27-.27h-3.26a.27.27,0,0,0-.26.27v7.78c0,3.36,1.87,4.19,4.45,4.19a7.48,7.48,0,0,0,3.82-1.17,6.31,6.31,0,0,0,.12.69.29.29,0,0,0,.24.14h2.07a.27.27,0,0,0,.26-.27V88A.27.27,0,0,0,226.25,87.76Z"/><path class="cls-2" d="M235,87.38a6,6,0,0,0-3.06.81V82.46a.27.27,0,0,0-.27-.27h-3.24a.27.27,0,0,0-.26.27V99.38a.27.27,0,0,0,.26.27h2.25a.28.28,0,0,0,.24-.14,6.28,6.28,0,0,0,.13-.78A5.84,5.84,0,0,0,234.9,100c2.94,0,4.63-1.49,4.63-6.71S236.84,87.38,235,87.38Zm-1.26,9.53a3.9,3.9,0,0,1-1.87-.54V91a4.28,4.28,0,0,1,1.66-.53c1.15-.11,2.27.24,2.27,3S235.3,97,233.75,96.91Z"/><path class="cls-2" d="M199.53,87.73h-2.42v-3.2q0-.18-.21-.18h-3.3c-.13,0-.2.05-.2.18v3.31l-1.77.43a.26.26,0,0,0-.19.26v2.08a.27.27,0,0,0,.27.27h1.69v5c0,3.72,2.61,4.08,4.37,4.08a7.4,7.4,0,0,0,1.92-.31.26.26,0,0,0,.15-.25V97.12a.28.28,0,0,0-.27-.27c-.14,0-.5.05-.88.05-1.19,0-1.59-.55-1.59-1.27V90.88h2.42a.27.27,0,0,0,.27-.27V88A.27.27,0,0,0,199.53,87.73Z"/></g><g id="Icon"><rect class="cls-3" x="39.26" y="39.26" width="34.64" height="34.64"/><rect class="cls-4" y="39.26" width="34.64" height="34.64"/><rect class="cls-5" x="39.26" width="34.64" height="34.64"/></g></g></g></g></svg>