<svg id="Layer_1" data-name="Layer 1" xmlns="http://www.w3.org/2000/svg" viewBox="0 0 378.01 86.58"><defs><style>.cls-1,.cls-2{fill:#fff;}.cls-1{fill-rule:evenodd;}.cls-3{fill:#f8b92a;}.cls-4{fill:#ffcd69;}.cls-5{fill:#e2a120;}</style></defs><g id="Layer_2" data-name="Layer 2"><g id="Logo_Yellow_Alt" data-name="Logo Yellow Alt"><g id="logo"><g id="Wordmark"><g id="Layer_2-2" data-name="Layer 2-2"><g id="Layer_1-2" data-name="Layer 1-2"><path class="cls-1" d="M112.35,2.3a4.27,4.27,0,0,0-.74-1.18,3.42,3.42,0,0,0-1.09-.8A3.66,3.66,0,0,0,109.18,0H91.34a.54.54,0,0,0-.43.17.59.59,0,0,0-.15.46V22.4c0,.42.18.61.56.61H95.4c.38,0,.56-.19.56-.61V5.45h3.32v17a.58.58,0,0,0,.55.61h3.75a.49.49,0,0,0,.38-.17.71.71,0,0,0,.15-.44v-17h3.31v17a.77.77,0,0,0,.14.44A.5.5,0,0,0,108,23h4.11a.58.58,0,0,0,.56-.6h0V3.76A3.87,3.87,0,0,0,112.35,2.3Z" transform="translate(0 0)"/><path class="cls-1" d="M131,17.6a.48.48,0,0,0-.4-.17H122a.54.54,0,0,1-.42-.16.58.58,0,0,1-.18-.43V.65c0-.41-.2-.63-.6-.63h-4.3c-.4,0-.6.22-.6.63V22.4q0,.63.6.63h14.08a.49.49,0,0,0,.4-.18.66.66,0,0,0,.17-.45V18.06A.69.69,0,0,0,131,17.6Z" transform="translate(0 0)"/><path class="cls-1" d="M152.62.2a.56.56,0,0,0-.42-.2h-4.39a.52.52,0,0,0-.41.18.59.59,0,0,0-.18.45V8a.6.6,0,0,1-.54.63h-6.19a.53.53,0,0,1-.58-.46V.65c0-.41-.2-.63-.6-.63h-4.37c-.4,0-.6.22-.6.63V22.46c0,.41.2.63.6.63h4.37c.4,0,.6-.22.6-.63V14.71a.75.75,0,0,1,.16-.29.63.63,0,0,1,.42-.16h6.15a.54.54,0,0,1,.42.16.67.67,0,0,1,.16.43v7.61a.67.67,0,0,0,.18.46.55.55,0,0,0,.42.17h4.38a.55.55,0,0,0,.42-.17.61.61,0,0,0,.18-.46V.65A.67.67,0,0,0,152.62.2Z" transform="translate(0 0)"/></g></g><path class="cls-2" d="M99,73.26H90.76V33.7h22.67v6.87H99v10.2h13.42v6.85H99Z" transform="translate(0 0)"/><path class="cls-2" d="M134.22,73.8q-7.31,0-11.42-4t-4.12-11.42q0-7.6,3.81-11.76T133,42.44q6.42,0,10,3.65t3.57,10.1v4H127.05a8,8,0,0,0,2.08,5.5,7.38,7.38,0,0,0,5.47,2,22.51,22.51,0,0,0,5.17-.57,25.62,25.62,0,0,0,5.08-1.81V71.7a19.49,19.49,0,0,1-4.62,1.61A29.56,29.56,0,0,1,134.22,73.8Zm-1.17-25.49A5.21,5.21,0,0,0,128.94,50a7.66,7.66,0,0,0-1.7,4.72h11.58a6.83,6.83,0,0,0-1.6-4.72A5.41,5.41,0,0,0,133.05,48.31Z" transform="translate(0 0)"/><path class="cls-2" d="M161.52,73.26h-8.25V31.15h8.25Z" transform="translate(0 0)"/><path class="cls-2" d="M178.44,73.26h-8.26V31.15h8.26Z" transform="translate(0 0)"/><path class="cls-2" d="M214.59,58.08q0,7.39-3.89,11.56T199.85,73.8a15.18,15.18,0,0,1-7.69-1.9A12.81,12.81,0,0,1,187,66.42a18.35,18.35,0,0,1-1.78-8.34q0-7.41,3.87-11.53T200,42.44a15.37,15.37,0,0,1,7.68,1.89,12.69,12.69,0,0,1,5.12,5.44A18.36,18.36,0,0,1,214.59,58.08Zm-20.91,0q0,4.5,1.47,6.79a5.25,5.25,0,0,0,4.8,2.3,5.18,5.18,0,0,0,4.75-2.28q1.45-2.3,1.45-6.81c0-3-.49-5.25-1.46-6.74a6.22,6.22,0,0,0-8.76-.79,5.9,5.9,0,0,0-.79.79C194.16,52.82,193.68,55.07,193.68,58.08Z" transform="translate(0 0)"/><path class="cls-2" d="M246.29,73.26,244,62.68l-3.14-13.37h-.19l-5.52,24h-8.88L217.63,43h8.22l3.49,13.39q.84,3.6,1.71,9.93h.16a55.06,55.06,0,0,1,.95-6.52l.43-2.3L236.33,43h9.09L249,57.51c.08.4.19,1,.34,1.76s.31,1.6.45,2.48.27,1.73.39,2.57a19.07,19.07,0,0,1,.2,2h.17c.16-1.29.45-3.08.86-5.34s.72-3.79.9-4.59L255.89,43H264l-8.71,30.25Z" transform="translate(0 0)"/><path class="cls-2" d="M290,64.28a8.35,8.35,0,0,1-3.23,7.09q-3.24,2.43-9.67,2.43a30.33,30.33,0,0,1-5.63-.44,21.15,21.15,0,0,1-4.4-1.36V65.23A29.58,29.58,0,0,0,272.25,67a20.77,20.77,0,0,0,5.08.73q4.49,0,4.49-2.6a2.11,2.11,0,0,0-.6-1.58,8.11,8.11,0,0,0-2.05-1.38q-1.47-.78-3.9-1.8a24.92,24.92,0,0,1-5.13-2.71,7.73,7.73,0,0,1-2.38-2.85,9.3,9.3,0,0,1-.74-4,7.17,7.17,0,0,1,3.12-6.24c2.09-1.47,5.05-2.2,8.86-2.2a25.23,25.23,0,0,1,10.64,2.38l-2.49,6c-1.39-.6-2.81-1.13-4.25-1.59a13.22,13.22,0,0,0-4-.63c-2.44,0-3.65.66-3.65,2a2.33,2.33,0,0,0,1.17,1.92,32.72,32.72,0,0,0,5.16,2.41,24.08,24.08,0,0,1,5.19,2.68,8,8,0,0,1,2.44,2.87A8.89,8.89,0,0,1,290,64.28Z" transform="translate(0 0)"/><path class="cls-2" d="M324.33,73.26h-8.25V55.59c0-4.37-1.62-6.56-4.87-6.55a5.55,5.55,0,0,0-5,2.36q-1.54,2.35-1.54,7.63V73.26h-8.25V31.15h8.25v8.58c0,.67-.06,2.24-.19,4.71l-.19,2.44h.43q2.76-4.44,8.77-4.44c3.56,0,6.25,1,8.09,2.87s2.76,4.65,2.76,8.22Z" transform="translate(0 0)"/><path class="cls-2" d="M332.48,35.19q0-4,4.49-4t4.5,4a3.94,3.94,0,0,1-1.13,3A4.75,4.75,0,0,1,337,39.24C334,39.24,332.49,37.89,332.48,35.19Zm8.61,38.07h-8.26V43h8.26Z" transform="translate(0 0)"/><path class="cls-2" d="M366.36,73.8A10,10,0,0,1,358,69.93h-.43c.29,2.53.43,4,.43,4.39V86.58h-8.25V43h6.71l1.16,3.92H358a9.56,9.56,0,0,1,8.58-4.49A9.83,9.83,0,0,1,375,46.58q3,4.14,3,11.5a22.81,22.81,0,0,1-1.42,8.42,11.85,11.85,0,0,1-4.05,5.44A10.38,10.38,0,0,1,366.36,73.8ZM363.93,49a5.24,5.24,0,0,0-4.47,1.88c-.94,1.26-1.42,3.33-1.46,6.21V58q0,4.86,1.45,7A5.15,5.15,0,0,0,364,67.12q5.53,0,5.54-9.15c0-3-.45-5.21-1.36-6.7A4.68,4.68,0,0,0,363.93,49Z" transform="translate(0 0)"/></g><g id="Icon"><rect class="cls-3" x="39.26" y="39.26" width="34.64" height="34.64"/><rect class="cls-4" y="39.26" width="34.64" height="34.64"/><rect class="cls-5" x="39.26" width="34.64" height="34.64"/></g></g></g></g></svg>